<mxfile host="app.diagrams.net" modified="2021-06-17T10:42:14.733Z" agent="5.0 (Macintosh; Intel Mac OS X 10_15_5) AppleWebKit/605.1.15 (KHTML, like Gecko) Version/13.1.1 Safari/605.1.15" etag="rRR-B_a_PYsrwNscyWQU" version="14.5.7" type="github">
  <diagram id="zpzRGGZIATb5uv67xp2l" name="Page-1">
    <mxGraphModel dx="825" dy="588" grid="1" gridSize="10" guides="1" tooltips="1" connect="1" arrows="1" fold="1" page="1" pageScale="1" pageWidth="827" pageHeight="1169" math="0" shadow="0">
      <root>
        <mxCell id="0" />
        <mxCell id="1" parent="0" />
        <mxCell id="wOuzQVZIBbvn-b8g_K0J-58" value="" style="endArrow=none;html=1;strokeWidth=1;fontColor=#FFFFFF;strokeColor=#FFFFFF;" parent="1" edge="1">
          <mxGeometry width="50" height="50" relative="1" as="geometry">
            <mxPoint x="120" y="660" as="sourcePoint" />
            <mxPoint x="750" y="660" as="targetPoint" />
          </mxGeometry>
        </mxCell>
        <mxCell id="wOuzQVZIBbvn-b8g_K0J-59" value="" style="endArrow=none;html=1;strokeWidth=1;fontColor=#FFFFFF;strokeColor=#FFFFFF;" parent="1" edge="1">
          <mxGeometry width="50" height="50" relative="1" as="geometry">
            <mxPoint x="110" y="650" as="sourcePoint" />
            <mxPoint x="110" y="190" as="targetPoint" />
          </mxGeometry>
        </mxCell>
        <mxCell id="G-PTMmzDkPfKh3OZzAT8-1" value="&lt;b&gt;Variable&amp;nbsp;&lt;/b&gt;" style="ellipse;whiteSpace=wrap;html=1;fillColor=#d5e8d4;strokeColor=#82b366;sketch=1;" parent="1" vertex="1">
          <mxGeometry x="600" y="60" width="100" height="60" as="geometry" />
        </mxCell>
        <mxCell id="G-PTMmzDkPfKh3OZzAT8-2" value="&lt;b&gt;Methode&lt;/b&gt;" style="ellipse;whiteSpace=wrap;html=1;fillColor=#dae8fc;strokeColor=#6c8ebf;sketch=1;" parent="1" vertex="1">
          <mxGeometry x="460" y="180" width="100" height="60" as="geometry" />
        </mxCell>
        <mxCell id="G-PTMmzDkPfKh3OZzAT8-3" value="&lt;b&gt;Wert&lt;/b&gt;" style="ellipse;whiteSpace=wrap;html=1;fillColor=#f8cecc;strokeColor=#b85450;sketch=1;" parent="1" vertex="1">
          <mxGeometry x="460" y="60" width="100" height="60" as="geometry" />
        </mxCell>
        <mxCell id="G-PTMmzDkPfKh3OZzAT8-4" value="&lt;b&gt;Return&lt;/b&gt;" style="ellipse;whiteSpace=wrap;html=1;fillColor=#e1d5e7;strokeColor=#9673a6;sketch=1;" parent="1" vertex="1">
          <mxGeometry x="530" y="120" width="100" height="60" as="geometry" />
        </mxCell>
        <mxCell id="G-PTMmzDkPfKh3OZzAT8-5" value="&lt;b&gt;Attribut&lt;/b&gt;" style="ellipse;whiteSpace=wrap;html=1;fillColor=#fff2cc;strokeColor=#d6b656;sketch=1;" parent="1" vertex="1">
          <mxGeometry x="600" y="180" width="100" height="60" as="geometry" />
        </mxCell>
      </root>
    </mxGraphModel>
  </diagram>
</mxfile>
